# xmcd
#
# Track frame offsets: 
#        150
#        20025
#        39037
#        58387
#        71137
#
# Disc length: 1211 seconds
#
# Revision: 0
# Processed by: cddbd v1.5.2PL0 Copyright (c) Steve Scherf et al.
# Submitted via: ExactAudioCopyFreeDBPlugin 1.0
#
DISCID=4304b905
DTITLE=新垣結衣 - piece
DYEAR=2009
DGENRE=Chorus
TTITLE0=piece
TTITLE1=スパークル
TTITLE2=あなたに
TTITLE3=piece (naked voice ver.)
TTITLE4=piece (instrumental)
EXTD=
EXTT0=
EXTT1=
EXTT2=
EXTT3=
EXTT4=
PLAYORDER=
